<svg width="260" height="80" xmlns="http://www.w3.org/2000/svg">

 <g>
  <title>background</title>
  <rect fill="none" id="canvas_background" height="82" width="262" y="-1" x="-1"/>
 </g>
 <g>
  <title>Layer 1</title>
  <g stroke="null" id="svg_1">
   <path stroke="null" id="svg_2" fill="#005fbf" d="m73.46272,17.026769l0.049619,-0.131482l-35.570148,-13.895286l-35.512238,14.039404l-0.115952,-0.046065l0,0.090024l-0.005001,0.002764l0.005001,0.015136l0,44.571233l35.612001,13.958856l35.617002,-13.959514l0,-44.677841l-0.080285,0.032772zm-35.553696,-11.295119l12.064535,4.320758l-32.88838,12.76867l-11.140735,-4.394594l31.964581,-12.694834zm-1.252439,66.750967l-13.337901,-5.384858l-6.69376,-2.51475l-11.765771,-4.641633l0,-39.208092l11.647713,4.594515l0,9.803931l1.03804,-0.289814l0.701503,0.963941l0.976708,-0.227956l0.94591,0.999214l0.825483,-0.284418l1.332592,1.321537l0,-9.990955l1.036724,0.40932l13.292889,5.242715l0,39.207302l-0.000132,0zm1.272313,-41.438687l-13.004522,-5.130711l32.073294,-12.998731l13.22774,5.388806l-32.296511,12.740636zm33.070665,28.897447l-31.799537,12.541241l0,-39.207171l31.796509,-12.542952l0,39.20796l0.003027,0.000921l0,0z"/>
  </g>
  <g id="svg_3"/>
  <g id="svg_4"/>
  <g id="svg_5"/>
  <g id="svg_6"/>
  <g id="svg_7"/>
  <g id="svg_8"/>
  <g id="svg_9"/>
  <g id="svg_10"/>
  <g id="svg_11"/>
  <g id="svg_12"/>
  <g id="svg_13"/>
  <g id="svg_14"/>
  <g id="svg_15"/>
  <g id="svg_16"/>
  <g id="svg_17"/>
  <text stroke="#000" transform="matrix(1.8608412926829774,0,0,1.8608412926829774,-128.09778063716152,-110.21418655468587) " xml:space="preserve" text-anchor="start" font-family="Euphoria, sans-serif" font-size="24" id="svg_18" y="83.363499" x="112.425995" stroke-width="0" fill="#333333">页面工厂</text>
  <text stroke="#000" xml:space="preserve" text-anchor="start" font-family="'Courier New', Courier, monospace" font-size="24" id="svg_19" y="71.363499" x="86.425995" stroke-width="0" fill="#333333">Page factory</text>
 </g>
</svg>