<?xml version="1.0" encoding="utf-8"?>
<!-- Generator: Adobe Illustrator 21.1.0, SVG Export Plug-In . SVG Version: 6.00 Build 0)  -->
<svg version="1.1" id="Layer_1" xmlns="http://www.w3.org/2000/svg" xmlns:xlink="http://www.w3.org/1999/xlink" x="0px" y="0px"
	 viewBox="0 0 16 16" style="enable-background:new 0 0 16 16;" xml:space="preserve">
<style type="text/css">
	.st0{fill:#888888;}
</style>
<path class="st0" d="M8,0c1.1,0,2.1,0.2,3.1,0.6s1.8,1,2.6,1.7s1.3,1.6,1.7,2.6c0.4,1,0.6,2,0.6,3.1s-0.2,2.1-0.6,3.1
	c-0.4,1-1,1.8-1.7,2.6s-1.6,1.3-2.6,1.7c-1,0.4-2,0.6-3.1,0.6s-2.1-0.2-3.1-0.6c-1-0.4-1.8-1-2.6-1.7s-1.3-1.6-1.7-2.6S0,9.1,0,8
	s0.2-2.1,0.6-3.1s1-1.8,1.7-2.6s1.6-1.3,2.6-1.7S6.9,0,8,0z M8,1.1c-1.1,0-2.2,0.3-3.2,0.8l1.7,1.7C7,3.5,7.5,3.4,8,3.4
	s1,0.1,1.5,0.2l1.7-1.7C10.2,1.4,9.1,1.1,8,1.1z M1.9,11.2l1.7-1.7C3.5,9,3.4,8.5,3.4,8s0.1-1,0.2-1.5L1.9,4.8
	C1.4,5.8,1.1,6.9,1.1,8S1.4,10.2,1.9,11.2z M8,14.9c1.1,0,2.2-0.3,3.2-0.8l-1.7-1.7c-0.5,0.2-1,0.2-1.5,0.2s-1-0.1-1.5-0.2l-1.7,1.7
	C5.8,14.6,6.9,14.9,8,14.9z M8,11.4c0.9,0,1.8-0.3,2.4-1c0.7-0.7,1-1.5,1-2.4s-0.3-1.8-1-2.4c-0.7-0.7-1.5-1-2.4-1s-1.8,0.3-2.4,1
	s-1,1.5-1,2.4s0.3,1.8,1,2.4C6.2,11.1,7.1,11.4,8,11.4z M12.3,9.5l1.7,1.7c0.5-1,0.8-2.1,0.8-3.2s-0.3-2.2-0.8-3.2l-1.7,1.7
	c0.2,0.5,0.2,1,0.2,1.5S12.5,9,12.3,9.5z"/>
</svg>
