<svg width="140" height="23.999999999999996" xmlns="http://www.w3.org/2000/svg">
 <g>
  <title>background</title>
  <rect fill="none" id="canvas_background" height="26" width="142" y="-1" x="-1"/>
 </g>

 <g>
  <title>Layer 1</title>
  <g stroke="null" id="svg_1">
   <path stroke="null" id="svg_2" fill="#007bf4" d="m28.552965,5.280531l0.015692,-0.041581l-11.249177,-4.394431l-11.230862,4.440009l-0.036669,-0.01457l0,0.028469l-0.001582,0.000876l0.001582,0.004785l0,14.095801l11.262412,4.414532l11.263993,-4.414741l0,-14.129513l-0.025389,0.010364l-0.000001,-0.000001zm-11.243974,-3.572119l3.81545,1.366455l-10.401058,4.038133l-3.523295,-1.389807l10.108903,-4.014782l0.000001,0.000001zm-0.396088,21.110213l-4.218154,-1.70298l-2.116923,-0.795298l-3.720963,-1.467931l0,-12.39969l3.68363,1.453032l0,3.100525l0.328284,-0.091653l0.221852,0.304849l0.308887,-0.072093l0.299147,0.316006l0.261061,-0.089948l0.421436,0.417938l0,-3.15967l0.327869,0.129449l4.203917,1.658025l0,12.399441l-0.000041,0l-0.000001,-0.000001zm0.402376,-13.105122l-4.112722,-1.622604l10.143283,-4.110891l4.183316,1.704226l-10.213877,4.029269l0.000001,-0.000001zm10.458705,9.138913l-10.056706,3.966209l0,-12.399396l10.055748,-3.966749l0,12.399645l0.000958,0.000291l0,0z"/>
  </g>
  <g id="svg_3"/>
  <g id="svg_4"/>
  <g id="svg_5"/>
  <g id="svg_6"/>
  <g id="svg_7"/>
  <g id="svg_8"/>
  <g id="svg_9"/>
  <g id="svg_10"/>
  <g id="svg_11"/>
  <g id="svg_12"/>
  <g id="svg_13"/>
  <g id="svg_14"/>
  <g id="svg_15"/>
  <g id="svg_16"/>
  <g id="svg_17"/>
  <text stroke="#000" transform="matrix(0.6429851051544547,0,0,0.6429851051544547,-5.484076320658691,-36.56254538761399) " xml:space="preserve" text-anchor="start" font-family="Euphoria, sans-serif" font-size="24" id="svg_18" y="76.913975" x="81.135265" stroke-width="0" fill="#333333">页 面 工 厂</text>
  <text xml:space="preserve" text-anchor="start" font-family="'Courier New', Courier, monospace" font-size="24" id="svg_19" y="25.180919" x="5.947165" stroke-width="0" fill="#333333" transform="matrix(0.4364463299132336,0,0,0.4169909633676395,44.10333846829073,11.328774804981848) " stroke="#000">Page factory</text>
  <g stroke="null" id="svg_21">
   <path stroke="null" id="svg_20" fill="#007bf4" d="m27.907804,4.95795l0.015692,-0.041581l-11.249176,-4.394431l-11.230862,4.440009l-0.03667,-0.01457l0,0.02847l-0.001581,0.000876l0.001581,0.004785l0,14.095801l11.262412,4.414532l11.263994,-4.414741l0,-14.129513l-0.025389,0.010364l-0.000001,-0.000001zm-11.243974,-3.572119l3.815449,1.366455l-10.401058,4.038133l-3.523295,-1.389807l10.108903,-4.014782l0.000001,0.000001zm-0.396089,21.110213l-4.218154,-1.70298l-2.116923,-0.795298l-3.720963,-1.467931l0,-12.39969l3.68363,1.453032l0,3.100525l0.328283,-0.091653l0.221852,0.304849l0.308888,-0.072093l0.299147,0.316006l0.26106,-0.089948l0.421436,0.417938l0,-3.15967l0.327869,0.129449l4.203917,1.658024l0,12.399441l-0.000041,0l-0.000001,-0.000001zm0.402376,-13.105122l-4.112722,-1.622604l10.143282,-4.11089l4.183316,1.704226l-10.213877,4.029269l0.000001,-0.000001zm10.458704,9.138913l-10.056705,3.966209l0,-12.399396l10.055747,-3.966749l0,12.399646l0.000958,0.00029l0,0z"/>
  </g>
 </g>
</svg>